<mxfile host="65bd71144e">
    <diagram id="GwCnExgBa9EK5bfnEdUT" name="Pagina-1">
        <mxGraphModel dx="948" dy="471" grid="1" gridSize="10" guides="1" tooltips="1" connect="1" arrows="1" fold="1" page="1" pageScale="1" pageWidth="827" pageHeight="1169" math="0" shadow="0">
            <root>
                <mxCell id="0"/>
                <mxCell id="1" parent="0"/>
                <mxCell id="U6SKjWJPfWMQONP4IEJV-13" style="edgeStyle=orthogonalEdgeStyle;rounded=0;orthogonalLoop=1;jettySize=auto;html=1;entryX=0;entryY=0.25;entryDx=0;entryDy=0;exitX=0.994;exitY=0.079;exitDx=0;exitDy=0;exitPerimeter=0;" parent="1" source="U6SKjWJPfWMQONP4IEJV-7" target="U6SKjWJPfWMQONP4IEJV-11" edge="1">
                    <mxGeometry relative="1" as="geometry">
                        <mxPoint x="290" y="340" as="sourcePoint"/>
                    </mxGeometry>
                </mxCell>
                <mxCell id="U6SKjWJPfWMQONP4IEJV-6" value="profile" style="swimlane;childLayout=stackLayout;horizontal=1;startSize=30;horizontalStack=0;rounded=1;fontSize=14;fontStyle=0;strokeWidth=2;resizeParent=0;resizeLast=1;shadow=0;dashed=0;align=center;" parent="1" vertex="1">
                    <mxGeometry x="120" y="290" width="160" height="290" as="geometry"/>
                </mxCell>
                <mxCell id="U6SKjWJPfWMQONP4IEJV-7" value="id   PK&#10;username&#10;faculty&#10;profile_picture_url&#10;bio&#10;total_rides_given&#10;joined_in&#10;car_model&#10;car_color&#10;car_plate&#10;city&#10;district&#10;instagram_url&#10;" style="align=left;strokeColor=none;fillColor=none;spacingLeft=4;fontSize=12;verticalAlign=top;resizable=0;rotatable=0;part=1;" parent="U6SKjWJPfWMQONP4IEJV-6" vertex="1">
                    <mxGeometry y="30" width="160" height="260" as="geometry"/>
                </mxCell>
                <mxCell id="U6SKjWJPfWMQONP4IEJV-10" value="review" style="swimlane;childLayout=stackLayout;horizontal=1;startSize=30;horizontalStack=0;rounded=1;fontSize=14;fontStyle=0;strokeWidth=2;resizeParent=0;resizeLast=1;shadow=0;dashed=0;align=center;" parent="1" vertex="1">
                    <mxGeometry x="370" y="290" width="200" height="150" as="geometry"/>
                </mxCell>
                <mxCell id="U6SKjWJPfWMQONP4IEJV-11" value="id   pk1&#10;reviewed_user_id fk  &#10;rating&#10;review&#10;timestamp&#10;author_name&#10;&#10;" style="align=left;strokeColor=none;fillColor=none;spacingLeft=4;fontSize=12;verticalAlign=top;resizable=0;rotatable=0;part=1;" parent="U6SKjWJPfWMQONP4IEJV-10" vertex="1">
                    <mxGeometry y="30" width="200" height="120" as="geometry"/>
                </mxCell>
                <mxCell id="U6SKjWJPfWMQONP4IEJV-19" style="edgeStyle=orthogonalEdgeStyle;rounded=0;orthogonalLoop=1;jettySize=auto;html=1;entryX=0.002;entryY=0.327;entryDx=0;entryDy=0;entryPerimeter=0;exitX=1.005;exitY=0.112;exitDx=0;exitDy=0;exitPerimeter=0;" parent="1" source="U6SKjWJPfWMQONP4IEJV-15" target="U6SKjWJPfWMQONP4IEJV-18" edge="1">
                    <mxGeometry relative="1" as="geometry"/>
                </mxCell>
                <mxCell id="U6SKjWJPfWMQONP4IEJV-14" value="ride" style="swimlane;childLayout=stackLayout;horizontal=1;startSize=30;horizontalStack=0;rounded=1;fontSize=14;fontStyle=0;strokeWidth=2;resizeParent=0;resizeLast=1;shadow=0;dashed=0;align=center;" parent="1" vertex="1">
                    <mxGeometry x="414" y="510" width="160" height="145" as="geometry"/>
                </mxCell>
                <mxCell id="U6SKjWJPfWMQONP4IEJV-15" value="id pk&#10;origin&#10;destination&#10;driver_name&#10;driver_id  fk&#10;available_seats&#10;depart_hour&#10;" style="align=left;strokeColor=none;fillColor=none;spacingLeft=4;fontSize=12;verticalAlign=top;resizable=0;rotatable=0;part=1;" parent="U6SKjWJPfWMQONP4IEJV-14" vertex="1">
                    <mxGeometry y="30" width="160" height="115" as="geometry"/>
                </mxCell>
                <mxCell id="U6SKjWJPfWMQONP4IEJV-16" style="edgeStyle=orthogonalEdgeStyle;rounded=0;orthogonalLoop=1;jettySize=auto;html=1;entryX=-0.012;entryY=0.61;entryDx=0;entryDy=0;entryPerimeter=0;exitX=1.02;exitY=0.084;exitDx=0;exitDy=0;exitPerimeter=0;" parent="1" source="U6SKjWJPfWMQONP4IEJV-7" target="U6SKjWJPfWMQONP4IEJV-15" edge="1">
                    <mxGeometry relative="1" as="geometry"/>
                </mxCell>
                <mxCell id="U6SKjWJPfWMQONP4IEJV-17" value="booking" style="swimlane;childLayout=stackLayout;horizontal=1;startSize=30;horizontalStack=0;rounded=1;fontSize=14;fontStyle=0;strokeWidth=2;resizeParent=0;resizeLast=1;shadow=0;dashed=0;align=center;" parent="1" vertex="1">
                    <mxGeometry x="640" y="470" width="160" height="120" as="geometry"/>
                </mxCell>
                <mxCell id="U6SKjWJPfWMQONP4IEJV-18" value="id PK&#10;ride_id FK&#10;booking_timestamp&#10;passenger_id" style="align=left;strokeColor=none;fillColor=none;spacingLeft=4;fontSize=12;verticalAlign=top;resizable=0;rotatable=0;part=1;" parent="U6SKjWJPfWMQONP4IEJV-17" vertex="1">
                    <mxGeometry y="30" width="160" height="90" as="geometry"/>
                </mxCell>
            </root>
        </mxGraphModel>
    </diagram>
</mxfile>